<?xml version="1.0" encoding="utf-8"?>
<!-- Generator: Adobe Illustrator 22.1.0, SVG Export Plug-In . SVG Version: 6.00 Build 0)  -->
<svg version="1.1" id="Calque_1" xmlns="http://www.w3.org/2000/svg" xmlns:xlink="http://www.w3.org/1999/xlink" x="0px" y="0px"
	 viewBox="0 0 841.9 595.3" style="enable-background:new 0 0 841.9 595.3;" xml:space="preserve">
<style type="text/css">
	.st0{fill:#FFFFFF;}
</style>
<polygon class="st0" points="211.3,260.4 211.3,272.8 239.4,289.1 244.8,292.2 250.2,289.1 289.4,266.4 289.4,279.6 244.8,305.4 
	199.8,279.4 199.8,239.3 244.8,265.4 300.3,233.2 266.9,213.8 232,233.7 241.2,239.2 266.9,224.5 281.4,232.9 244.8,254.2 
	208.3,233.1 254.5,206.3 244.9,200.8 244.8,200.7 189,233.1 189,233.1 189,285.6 244.8,317.9 300.2,285.8 300.2,247.7 244.8,279.8 
	"/>
<g>
	<path class="st0" d="M331.3,233.3c3.8,0,6.6,1.1,8.4,3.4c1.8,2.2,2.7,5.3,2.7,9v4.2h-5.2v-4.5c0-2.3-0.5-4-1.4-5.2
		c-0.9-1.2-2.4-1.9-4.4-1.9c-2,0-3.4,0.6-4.4,1.9c-0.9,1.2-1.4,3-1.4,5.2v26c0,2.2,0.5,4,1.4,5.2c0.9,1.2,2.4,1.9,4.4,1.9
		c2,0,3.5-0.6,4.4-1.9s1.4-3,1.4-5.2v-9.8h-5.1v-4.9h10.3v14.5c0,3.8-0.9,6.8-2.7,9c-1.8,2.2-4.6,3.4-8.4,3.4
		c-3.8,0-6.5-1.1-8.3-3.4c-1.8-2.2-2.7-5.2-2.7-9v-25.5c0-1.9,0.2-3.6,0.7-5.1c0.4-1.5,1.1-2.8,2-3.9c0.9-1.1,2.1-1.9,3.4-2.5
		C327.8,233.6,329.4,233.3,331.3,233.3z"/>
	<path class="st0" d="M355.1,273.1l-1.9,9.9h-5.1l9.4-49.2h7.9l9.4,49.2h-5.5l-1.9-9.9H355.1z M355.8,268.4h11l-5.6-28.4
		L355.8,268.4z"/>
	<path class="st0" d="M384.4,283v-44.2h-9.1v-5h23.6v5h-9.1V283H384.4z"/>
	<path class="st0" d="M410.2,233.8V283h-5.5v-49.2H410.2z"/>
	<path class="st0" d="M436.3,255.6v4.9h-12V278h14.8v5h-20.3v-49.2h20.3v5h-14.8v16.8H436.3z"/>
	<path class="st0" d="M451,283h-4.9v-49.2h7l11.4,35.6v-35.6h4.9V283h-5.7L451,243.2V283z"/>
	<path class="st0" d="M499.4,233.3c3.8,0,6.6,1.1,8.4,3.4c1.8,2.2,2.7,5.3,2.7,9v4.2h-5.2v-4.5c0-2.3-0.5-4-1.4-5.2
		c-0.9-1.2-2.4-1.9-4.4-1.9c-2,0-3.4,0.6-4.4,1.9c-0.9,1.2-1.4,3-1.4,5.2v26c0,2.2,0.5,4,1.4,5.2c0.9,1.2,2.4,1.9,4.4,1.9
		c2,0,3.5-0.6,4.4-1.9s1.4-3,1.4-5.2v-9.8h-5.1v-4.9h10.3v14.5c0,3.8-0.9,6.8-2.7,9c-1.8,2.2-4.6,3.4-8.4,3.4
		c-3.8,0-6.5-1.1-8.3-3.4c-1.8-2.2-2.7-5.2-2.7-9v-25.5c0-1.9,0.2-3.6,0.7-5.1c0.4-1.5,1.1-2.8,2-3.9c0.9-1.1,2.1-1.9,3.4-2.5
		C495.9,233.6,497.6,233.3,499.4,233.3z"/>
	<path class="st0" d="M528.7,233.8c3.9,0,6.7,1,8.4,2.9c1.7,1.9,2.6,4.7,2.6,8.4v4c0,2.7-0.5,4.9-1.5,6.6s-2.5,2.9-4.6,3.5
		c2.2,0.7,3.8,1.9,4.8,3.6c0.9,1.8,1.4,4,1.4,6.6v7.7c0,1.1,0,2.1,0.1,3.1c0.1,1,0.4,1.9,0.8,2.8h-5.6c-0.3-0.7-0.6-1.5-0.7-2.3
		c-0.1-0.8-0.2-2-0.2-3.7v-7.7c0-2.8-0.6-4.7-1.9-5.7c-1.2-1.1-3-1.6-5.3-1.6h-3.9v21h-5.5v-49.2H528.7z M527.3,257
		c2.2,0,3.9-0.5,5.1-1.4c1.2-0.9,1.8-2.7,1.8-5.4v-4.7c0-2.2-0.4-3.9-1.3-5.1c-0.9-1.1-2.3-1.7-4.4-1.7h-5.3V257H527.3z"/>
	<path class="st0" d="M564,255.6v4.9h-12V278h14.8v5h-20.3v-49.2h20.3v5h-14.8v16.8H564z"/>
	<path class="st0" d="M583.4,233.3c3.8,0,6.6,1.1,8.4,3.4s2.7,5.3,2.7,9v4.2h-5.2v-4.5c0-2.3-0.5-4-1.4-5.2
		c-0.9-1.2-2.4-1.9-4.4-1.9c-2,0-3.4,0.6-4.4,1.9c-0.9,1.2-1.4,3-1.4,5.2v26c0,2.2,0.5,4,1.4,5.2c0.9,1.2,2.4,1.9,4.4,1.9
		c2,0,3.5-0.6,4.4-1.9s1.4-3,1.4-5.2v-9.8h-5.1v-4.9h10.3v14.5c0,3.8-0.9,6.8-2.7,9s-4.6,3.4-8.4,3.4c-3.8,0-6.5-1.1-8.3-3.4
		c-1.8-2.2-2.7-5.2-2.7-9v-25.5c0-1.9,0.2-3.6,0.7-5.1c0.4-1.5,1.1-2.8,2-3.9c0.9-1.1,2.1-1.9,3.4-2.5
		C579.9,233.6,581.5,233.3,583.4,233.3z"/>
	<path class="st0" d="M601.3,245.7c0-3.8,0.9-6.8,2.8-9c1.9-2.2,4.7-3.3,8.5-3.3s6.6,1.1,8.5,3.3c1.9,2.2,2.8,5.2,2.8,9v25.5
		c0,3.8-0.9,6.8-2.8,9s-4.7,3.4-8.5,3.4s-6.6-1.1-8.5-3.4c-1.9-2.2-2.8-5.2-2.8-9V245.7z M606.7,271.4c0,2.2,0.5,4,1.4,5.2
		c1,1.2,2.4,1.9,4.4,1.9c2,0,3.5-0.6,4.4-1.9c0.9-1.2,1.4-3,1.4-5.2v-26c0-2.3-0.5-4-1.4-5.2c-0.9-1.2-2.4-1.9-4.4-1.9
		c-2,0-3.4,0.6-4.4,1.9c-1,1.2-1.4,3-1.4,5.2V271.4z"/>
	<path class="st0" d="M642,233.8c3.9,0,6.7,1,8.4,2.9c1.7,1.9,2.6,4.7,2.6,8.4v4c0,2.7-0.5,4.9-1.5,6.6s-2.5,2.9-4.6,3.5
		c2.2,0.7,3.8,1.9,4.8,3.6s1.4,4,1.4,6.6v7.7c0,1.1,0,2.1,0.1,3.1c0.1,1,0.4,1.9,0.8,2.8h-5.6c-0.3-0.7-0.6-1.5-0.7-2.3
		c-0.1-0.8-0.2-2-0.2-3.7v-7.7c0-2.8-0.6-4.7-1.9-5.7c-1.2-1.1-3-1.6-5.3-1.6h-3.9v21H631v-49.2H642z M640.6,257
		c2.2,0,3.9-0.5,5.1-1.4c1.2-0.9,1.8-2.7,1.8-5.4v-4.7c0-2.2-0.4-3.9-1.3-5.1c-0.9-1.1-2.3-1.7-4.4-1.7h-5.3V257H640.6z"/>
	<path class="st0" d="M666.2,233.8V283h-5.5v-49.2H666.2z"/>
</g>
</svg>
