<?xml version="1.0" encoding="utf-8"?>
<!-- Generator: Adobe Illustrator 22.1.0, SVG Export Plug-In . SVG Version: 6.00 Build 0)  -->
<svg version="1.1" id="Calque_1" xmlns="http://www.w3.org/2000/svg" xmlns:xlink="http://www.w3.org/1999/xlink" x="0px" y="0px"
	 viewBox="0 0 477.7 118.3" style="enable-background:new 0 0 477.7 118.3;" xml:space="preserve">
<style type="text/css">
	.st0{fill:#020203;}
</style>
<g>
	<path class="st0" d="M56.1,65.7c0.2,0.1,0.4,0.1,0.5,0l55.5-32.2c0.2-0.1,0.3-0.3,0.3-0.5c0-0.2-0.1-0.4-0.3-0.5L78.7,13.2
		c-0.2-0.1-0.4-0.1-0.5,0L43.3,33.1c-0.2,0.1-0.3,0.3-0.3,0.5c0,0.2,0.1,0.4,0.3,0.5l9.2,5.5c0.2,0.1,0.4,0.1,0.5,0L78.4,25
		l13.4,7.8L56.3,53.4L20.9,32.9L66.3,6.6c0.2-0.1,0.3-0.3,0.3-0.5s-0.1-0.4-0.3-0.5l-9.5-5.5l0,0C56.5,0,56.3,0,56.1,0.1L0.3,32.5
		C0.1,32.6,0,32.7,0,32.9v52.5c0,0.2,0.1,0.4,0.3,0.5l55.8,32.3c0.1,0,0.2,0.1,0.3,0.1s0.2,0,0.3-0.1L112,86.1
		c0.2-0.1,0.3-0.3,0.3-0.5V47.5c0-0.2-0.1-0.4-0.3-0.5c-0.2-0.1-0.4-0.1-0.5,0L56.3,79L23.1,59.8c-0.2-0.1-0.4-0.1-0.5,0
		c-0.2,0.1-0.3,0.3-0.3,0.5v12.4c0,0.2,0.1,0.4,0.3,0.5l28.1,16.3l5.4,3.1c0.2,0.1,0.4,0.1,0.5,0l5.4-3.1l38.4-22.2v12l-44.1,25.5
		L11.9,78.9V40.1L56.1,65.7z"/>
	<path class="st0" d="M142.8,33.1c-1.9,0-3.5,0.3-4.9,0.9c-1.3,0.6-2.5,1.4-3.4,2.5c-0.9,1.1-1.6,2.4-2,3.9
		c-0.5,1.5-0.7,3.2-0.7,5.1V71c0,3.8,0.9,6.8,2.7,9c1.8,2.3,4.5,3.4,8.3,3.4s6.6-1.2,8.4-3.4c1.8-2.2,2.7-5.2,2.7-9V56.5h-10.3v4.9
		h5.1v9.8c0,2.2-0.5,3.9-1.4,5.2c-0.9,1.3-2.4,1.9-4.4,1.9s-3.5-0.7-4.4-1.9c-0.9-1.2-1.4-3-1.4-5.2v-26c0-2.2,0.5-4,1.4-5.2
		c1-1.3,2.4-1.9,4.4-1.9s3.5,0.7,4.4,1.9c0.9,1.2,1.4,2.9,1.4,5.2v4.5h5.2v-4.2c0-3.7-0.9-6.8-2.7-9
		C149.4,34.2,146.6,33.1,142.8,33.1z"/>
	<path class="st0" d="M169,33.6l-9.4,49.2h5.1l1.9-9.9h12.3l1.9,9.9h5.5l-9.4-49.2H169z M167.3,68.2l5.4-28.4l5.6,28.4H167.3z"/>
	<polygon class="st0" points="186.8,38.6 195.9,38.6 195.9,82.8 201.3,82.8 201.3,38.6 210.4,38.6 210.4,33.6 186.8,33.6 	"/>
	<rect x="216.2" y="33.6" class="st0" width="5.5" height="49.2"/>
	<polygon class="st0" points="230.3,82.8 250.6,82.8 250.6,77.8 235.8,77.8 235.8,60.3 247.8,60.3 247.8,55.4 235.8,55.4 
		235.8,38.6 250.6,38.6 250.6,33.6 230.3,33.6 	"/>
	<polygon class="st0" points="276,69.2 264.6,33.6 257.6,33.6 257.6,82.8 262.5,82.8 262.5,43 275.2,82.8 280.9,82.8 280.9,33.6 
		276,33.6 	"/>
	<path class="st0" d="M310.9,33.1c-1.8,0-3.5,0.3-4.9,0.9c-1.3,0.6-2.5,1.4-3.4,2.5c-0.9,1.1-1.6,2.4-2,3.9
		c-0.5,1.5-0.7,3.2-0.7,5.1V71c0,3.8,0.9,6.8,2.7,9c1.8,2.3,4.5,3.4,8.3,3.4s6.6-1.2,8.4-3.4s2.7-5.2,2.7-9V56.5h-10.3v4.9h5.1v9.8
		c0,2.2-0.5,3.9-1.4,5.2c-0.9,1.3-2.4,1.9-4.4,1.9s-3.5-0.7-4.4-1.9c-0.9-1.2-1.4-3-1.4-5.2v-26c0-2.2,0.5-4,1.4-5.2
		c1-1.3,2.4-1.9,4.4-1.9s3.5,0.7,4.4,1.9c0.9,1.2,1.4,2.9,1.4,5.2v4.5h5.2v-4.2c0-3.7-0.9-6.8-2.7-9
		C317.5,34.2,314.7,33.1,310.9,33.1z"/>
	<path class="st0" d="M351.3,76.9v-7.7c0-2.6-0.5-4.8-1.4-6.6c-1-1.7-2.6-2.9-4.8-3.6c2.1-0.6,3.6-1.8,4.6-3.5s1.5-3.9,1.5-6.6v-4
		c0-3.7-0.9-6.5-2.6-8.4c-1.7-1.9-4.5-2.9-8.4-2.9h-11.1v49.2h5.5v-21h3.9c2.3,0,4.1,0.5,5.3,1.6c1.3,1,1.9,2.9,1.9,5.7v7.7
		c0,1.7,0.1,2.9,0.2,3.7c0.1,0.8,0.4,1.6,0.7,2.3h5.6c-0.4-0.9-0.7-1.8-0.8-2.8S351.3,78,351.3,76.9z M343.9,55.4
		c-1.2,0.9-2.9,1.4-5.1,1.4h-4.1V38.5h5.3c2.1,0,3.5,0.6,4.4,1.7c0.9,1.2,1.3,2.9,1.3,5.1V50C345.7,52.7,345.1,54.5,343.9,55.4z"/>
	<polygon class="st0" points="358,82.8 378.3,82.8 378.3,77.8 363.5,77.8 363.5,60.3 375.5,60.3 375.5,55.4 363.5,55.4 363.5,38.6 
		378.3,38.6 378.3,33.6 358,33.6 	"/>
	<path class="st0" d="M394.9,33.1c-1.9,0-3.5,0.3-4.9,0.9c-1.3,0.6-2.5,1.4-3.4,2.5c-0.9,1.1-1.6,2.4-2,3.9
		c-0.5,1.5-0.7,3.2-0.7,5.1V71c0,3.8,0.9,6.8,2.7,9c1.8,2.3,4.5,3.4,8.3,3.4c3.8,0,6.6-1.2,8.4-3.4s2.7-5.2,2.7-9V56.5h-10.3v4.9
		h5.1v9.8c0,2.2-0.5,3.9-1.4,5.2s-2.4,1.9-4.4,1.9s-3.5-0.7-4.4-1.9s-1.4-3-1.4-5.2v-26c0-2.2,0.5-4,1.4-5.2c1-1.3,2.4-1.9,4.4-1.9
		s3.5,0.7,4.4,1.9s1.4,2.9,1.4,5.2v4.5h5.2v-4.2c0-3.7-0.9-6.7-2.7-9S398.7,33.1,394.9,33.1z"/>
	<path class="st0" d="M424.1,33.2c-3.8,0-6.6,1.1-8.5,3.3c-1.9,2.2-2.8,5.2-2.8,9V71c0,3.8,0.9,6.8,2.8,9c1.9,2.3,4.7,3.4,8.5,3.4
		s6.6-1.2,8.5-3.4s2.8-5.2,2.8-9V45.5c0-3.8-0.9-6.8-2.8-9S427.9,33.2,424.1,33.2z M429.8,71.2c0,2.2-0.5,4-1.4,5.2
		c-0.9,1.3-2.4,1.9-4.4,1.9s-3.4-0.7-4.4-1.9c-0.9-1.2-1.4-3-1.4-5.2v-26c0-2.2,0.4-4,1.4-5.2c1-1.3,2.4-1.9,4.4-1.9
		s3.5,0.7,4.4,1.9s1.4,2.9,1.4,5.2V71.2z"/>
	<path class="st0" d="M464.6,76.9v-7.7c0-2.6-0.4-4.9-1.4-6.6s-2.6-2.9-4.8-3.6c2.1-0.6,3.6-1.8,4.6-3.5s1.5-3.9,1.5-6.6v-4
		c0-3.7-0.9-6.5-2.6-8.4c-1.7-1.9-4.5-2.9-8.4-2.9h-11v49.2h5.4v-21h3.9c2.3,0,4.1,0.5,5.3,1.6c1.3,1,1.9,2.9,1.9,5.7v7.7
		c0,1.7,0.1,2.9,0.2,3.7c0.1,0.8,0.4,1.6,0.7,2.3h5.6c-0.4-0.9-0.7-1.8-0.8-2.8S464.6,78,464.6,76.9z M457.2,55.4
		c-1.2,0.9-2.9,1.4-5.1,1.4H448V38.5h5.3c2.1,0,3.5,0.6,4.4,1.7c0.9,1.2,1.3,2.9,1.3,5.1V50C459,52.7,458.4,54.5,457.2,55.4z"/>
	<rect x="472.2" y="33.6" class="st0" width="5.5" height="49.2"/>
</g>
</svg>
